<?xml version="1.0" encoding="iso-8859-1"?>
<!-- Generator: Adobe Illustrator 19.0.0, SVG Export Plug-In . SVG Version: 6.00 Build 0)  -->
<svg version="1.1" id="Layer_1" xmlns="http://www.w3.org/2000/svg" xmlns:xlink="http://www.w3.org/1999/xlink" x="0px" y="0px"
	 viewBox="0 0 512 512" style="enable-background:new 0 0 512 512;" xml:space="preserve">
<g>
	<g>
		<path d="M504.247,36.808c-5.716-5.716-13.394-8.256-20.866-7.652c0.605-7.471-1.937-15.15-7.651-20.866
			c-10.339-10.339-27.102-10.339-37.44,0c-10.226,10.226-10.32,26.73-0.315,37.092l-15.474,15.474
			c-22.756-15.428-51.606-22.093-83.193-18.904c-34.926,3.527-70.953,18.978-102.05,43.667
			c-54.078,9.468-107.668,38.582-151.528,82.44c-20.572,20.571-38.002,43.406-51.804,67.868
			C10.973,276.609-0.746,319.556,0.037,360.127c0.833,43.226,15.789,80.59,43.25,108.051
			c27.462,27.462,64.826,42.418,108.051,43.251c1.272,0.026,2.541,0.036,3.818,0.036c39.438,0,80.977-11.693,120.382-33.926v-0.001
			c24.461-13.803,47.296-31.23,67.868-51.802c43.86-43.859,72.972-97.45,82.44-151.528c24.689-31.097,40.139-67.123,43.667-102.05
			c3.078-30.478-3.017-58.408-17.308-80.775l15.932-15.932c10.4,9.091,26.197,8.707,36.108-1.204
			C514.585,63.91,514.585,47.147,504.247,36.808z M243.742,446.2c-65.115,32.589-132.445,29.752-170.338-8.138
			c-37.892-37.894-40.727-105.226-8.139-170.337c71.429-41.397,144.869-43.484,183.414-4.939
			C287.223,301.331,285.136,374.772,243.742,446.2z M427.136,167.879c-2.857,28.277-16.255,57.977-37.728,83.624
			c-2.52,3.01-4.16,6.659-4.736,10.543c-6.992,47.096-32.343,94.532-71.383,133.573c-1.039,1.039-2.107,2.036-3.157,3.057
			c5.341-19.043,8.307-37.928,8.744-56.239c1.065-44.527-12.795-82.484-40.078-109.768c-27.285-27.285-65.247-41.114-109.768-40.078
			c-18.31,0.437-37.195,3.403-56.238,8.744c1.019-1.052,2.016-2.118,3.055-3.158c39.04-39.04,86.477-64.391,133.573-71.383
			c3.883-0.575,7.533-2.216,10.543-4.736c25.649-21.472,55.347-34.873,83.624-37.728c3.691-0.373,7.312-0.558,10.855-0.558
			c21.661,0,40.331,6.907,53.338,19.913C422.915,118.82,429.789,141.618,427.136,167.879z"/>
	</g>
</g>
<g>
	<g>
		<path d="M194.745,316.721c-32.959-32.962-78.512-39.047-103.703-13.855s-19.104,70.743,13.855,103.702
			c19.287,19.289,42.886,29.373,64.194,29.372c15.103,0,29.058-5.068,39.507-15.518C233.789,395.231,227.703,349.68,194.745,316.721
			z M178.48,390.305c-6.034,6.035-25.97,3.64-43.467-13.855c-17.494-17.494-19.891-37.429-13.854-43.466
			c1.919-1.919,5.245-2.987,9.45-2.987c9.02,0,22.086,4.909,34.017,16.841C182.122,364.334,184.517,384.268,178.48,390.305z"/>
	</g>
</g>
<g>
</g>
<g>
</g>
<g>
</g>
<g>
</g>
<g>
</g>
<g>
</g>
<g>
</g>
<g>
</g>
<g>
</g>
<g>
</g>
<g>
</g>
<g>
</g>
<g>
</g>
<g>
</g>
<g>
</g>
</svg>
