<?xml version="1.0" encoding="iso-8859-1"?>
<!-- Generator: Adobe Illustrator 19.0.0, SVG Export Plug-In . SVG Version: 6.00 Build 0)  -->
<svg version="1.1" id="Layer_1" xmlns="http://www.w3.org/2000/svg" xmlns:xlink="http://www.w3.org/1999/xlink" x="0px" y="0px"
	 viewBox="0 0 512 512" style="enable-background:new 0 0 512 512;" xml:space="preserve">
<g>
	<g>
		<circle cx="301" cy="313.225" r="8.172"/>
	</g>
</g>
<g>
	<g>
		<circle cx="273.761" cy="335.016" r="8.172"/>
	</g>
</g>
<g>
	<g>
		<circle cx="67.574" cy="275.09" r="8.172"/>
	</g>
</g>
<g>
	<g>
		<path d="M511.779,171.243c0.026-0.279,0.038-0.561,0.035-0.848c-0.005-0.563-0.07-1.112-0.183-1.643
			c-2.67-42.281-20.113-83.794-52.352-116.034C426.693,20.133,384.635,2.664,341.887,0.285c-0.527-0.109-1.073-0.168-1.633-0.169
			h-0.025c-0.288,0-0.571,0.015-0.851,0.045c-48.681-2.035-98.036,15.483-135.124,52.571
			c-12.685,12.685-23.287,27.193-31.512,43.126c-1.309,2.532-1.202,5.564,0.282,8c1.484,2.435,4.128,3.921,6.979,3.921l0.32-0.004
			c3.903,0,7.166-2.736,7.978-6.393c7.299-13.658,16.545-26.126,27.51-37.092c32.086-32.086,74.268-48.069,116.413-47.956
			c1.84,42.546,19.268,82.262,49.583,112.579c30.654,30.651,70.82,48.09,113.843,49.627c0.433,42.555-15.54,85.249-47.94,117.649
			c-19.014,19.014-42.186,32.611-68.875,40.412c-4.332,1.267-6.817,5.805-5.551,10.137c1.043,3.566,4.303,5.88,7.84,5.88
			c0.758,0,1.53-0.107,2.296-0.33c29.352-8.58,54.87-23.566,75.846-44.542C496.704,270.306,514.205,220.368,511.779,171.243z
			 M393.362,117.353c-27.021-27.02-42.707-62.306-44.731-100.156c36.207,3.709,71.407,19.395,99.09,47.077
			c27.372,27.372,43.013,62.095,46.946,97.874C456.383,160.392,420.687,144.678,393.362,117.353z"/>
	</g>
</g>
<g>
	<g>
		<path d="M301.255,170.801c-0.179-0.216-0.37-0.425-0.575-0.625c-0.403-0.394-0.837-0.739-1.292-1.033
			c-31.786-28.008-73.473-45.028-119.066-45.028c-46.083,0-88.177,17.386-120.087,45.933c-0.449,0.295-0.876,0.64-1.272,1.033
			c-0.209,0.208-0.403,0.425-0.585,0.648C22.515,204.715,0,252.003,0,304.456c0,67.095,38.252,118.709,78.72,151.535
			c0.276,0.251,0.563,0.488,0.868,0.698c27.561,22.156,56.029,35.604,74.047,39.287c13.141,11.703,22.962,15.221,24.082,15.596
			c0.843,0.284,1.723,0.426,2.602,0.426s1.757-0.142,2.602-0.426c1.12-0.376,10.94-3.893,24.082-15.596
			c18.044-3.688,46.568-17.168,74.165-39.38c0.15-0.108,0.29-0.227,0.431-0.344c40.588-32.814,79.042-84.525,79.042-151.797
			C360.642,251.51,337.707,203.822,301.255,170.801z M201.922,480.297c-1.587,0.258-3.065,0.979-4.244,2.072
			c-7.642,7.083-13.97,10.817-17.357,12.526c-3.386-1.707-9.714-5.441-17.357-12.526c-1.18-1.093-2.656-1.814-4.244-2.072
			c-13.136-2.134-34.542-11.756-56.318-26.946l15.742-4.414c2.747-0.77,4.892-2.917,5.662-5.662l6.738-24.037l24.179,6.159
			c2.761,0.705,5.683-0.08,7.722-2.067l17.874-17.424l17.875,17.424c2.039,1.987,4.963,2.772,7.722,2.067l24.179-6.159l6.738,24.038
			c0.77,2.747,2.916,4.892,5.662,5.662l15.742,4.414C236.464,468.54,215.057,478.162,201.922,480.297z M286.601,430.157
			c-3.932,3.774-7.98,7.37-12.084,10.784l-23.185-6.5l-7.651-27.297c-1.197-4.272-5.584-6.808-9.885-5.713l-27.472,6.998
			l-20.297-19.786c-3.174-3.094-8.235-3.094-11.409,0L154.32,408.43l-27.471-6.998c-4.298-1.095-8.688,1.439-9.885,5.713
			l-7.652,27.295l-23.186,6.5c-4.104-3.415-8.152-7.009-12.083-10.783c-26.323-25.265-57.7-67.581-57.7-125.701
			c0-45.377,18.527-86.505,48.408-116.226c13.124,12.024,27.942,21.849,44.153,29.256c1.1,0.503,2.254,0.742,3.391,0.742
			c3.1,0,6.064-1.774,7.437-4.778c1.875-4.105,0.069-8.954-4.037-10.828c-14.169-6.474-27.157-14.999-38.728-25.384
			c28.225-22.979,64.206-36.777,103.354-36.777c38.707,0,74.32,13.492,102.4,36.008c-28.314,25.831-64.66,39.962-103.304,39.962
			c-11.576,0-23.13-1.298-34.336-3.858c-4.405-1.009-8.782,1.747-9.786,6.147c-1.005,4.4,1.747,8.782,6.146,9.785
			c12.399,2.833,25.176,4.269,37.976,4.269c43.349,0,84.086-16.065,115.596-45.402c30.393,29.785,49.286,71.267,49.286,117.085
			C344.299,362.576,312.922,404.892,286.601,430.157z"/>
	</g>
</g>
<g>
	<g>
		<circle cx="417.898" cy="232.772" r="8.172"/>
	</g>
</g>
<g>
	<g>
		<circle cx="373.782" cy="188.732" r="8.172"/>
	</g>
</g>
<g>
</g>
<g>
</g>
<g>
</g>
<g>
</g>
<g>
</g>
<g>
</g>
<g>
</g>
<g>
</g>
<g>
</g>
<g>
</g>
<g>
</g>
<g>
</g>
<g>
</g>
<g>
</g>
<g>
</g>
</svg>
