<?xml version="1.0" encoding="iso-8859-1"?>
<!-- Generator: Adobe Illustrator 19.0.0, SVG Export Plug-In . SVG Version: 6.00 Build 0)  -->
<svg version="1.1" id="Layer_1" xmlns="http://www.w3.org/2000/svg" xmlns:xlink="http://www.w3.org/1999/xlink" x="0px" y="0px"
	 viewBox="0 0 265.63 265.63" style="enable-background:new 0 0 265.63 265.63;" xml:space="preserve">
<g>
	<g>
		<g>
			<path d="M256.169,37.229c-7.42-9.324-18.576-15.032-32.248-16.508c-16.528-1.784-32.2,8.84-42.408,23.6
				c-8.132-1.344-17.044-2.336-26.284-2.956V20.517c0-10.284-9.872-18.656-22-18.656h-0.832c-12.128,0-22,8.372-22,18.656v20.724
				c-9.404,0.58-18.448,1.532-26.648,2.872c-10.192-14.488-25.656-24.86-42.036-23.064c-13.676,1.476-24.832,7.188-32.252,16.508
				c-7.636,9.592-10.744,22.504-8.98,37.328c1.808,15.232,14.304,22.264,18.52,24.228l-1.552,28.452l2.008,0.084
				c0.476,0.02,0.948,0.028,1.416,0.028c20.544,0,31.14-18.972,31.588-19.8l1.164-2.132l-30.756-9.428
				c-1.016-9.128,0.776-16.72,5.336-22.576c5.004-6.424,12.304-9.424,17.068-10.78c-0.144,1.776-0.268,3.556-0.268,5.364
				c0,39.628,33.752,81.948,77.28,87.964c3.44,20.072,1.472,79.244,0.852,82.852c-1.024,3.184-3.588,3.896-8.032,4.876
				c-1.688,0.372-3.428,0.752-4.9,1.3c-10.132,1.852-15.06,4.576-15.06,8.32c0,8,23.68,10.132,37.672,10.132
				s37.668-2.132,37.668-10.132c0-3.728-4.876-6.44-14.896-8.288c-1.728-0.596-3.416-0.972-5.056-1.332
				c-4.444-0.98-7.012-1.692-7.988-4.7c-0.628-3.756-1.668-62.208,1.2-83.084c43.336-6.22,76.88-48.4,76.88-87.904
				c0-1.92-0.124-3.816-0.284-5.7c4.764,1.36,12.072,4.356,17.08,10.788c4.56,5.852,6.352,13.44,5.336,22.572l-30.752,9.428
				l1.164,2.132c0.448,0.828,11.04,19.8,31.584,19.8c0.464,0,0.94-0.008,1.416-0.028l2.008-0.084l-1.552-28.452
				c4.216-1.96,16.716-9,18.52-24.228C266.917,59.729,263.809,46.825,256.169,37.229z M212.505,25.597
				c9.184,9.82,3.516,26.46,1.396,31.656c-10.436-7.192-26.136-5.256-33.08-3.912C187.913,40.125,199.565,28.957,212.505,25.597z
				 M213.461,60.469c-0.868,2.904-1.968,5.608-3.256,8.132c-8.18,3.108-20.716,5.872-36.008,7.724
				c-0.084-1.212-0.152-2.12-0.184-2.512c0.704-5.728,2.528-11.604,5.164-17.228C183.961,55.501,202.877,51.949,213.461,60.469z
				 M155.113,45.357c8.824,0.588,16.876,1.488,24.068,2.624c-0.828,1.372-1.6,2.772-2.336,4.196
				c-6.916-1.056-14.404-1.86-22.188-2.388C154.865,48.093,155.021,46.589,155.113,45.357z M175.813,54.225
				c-2.968,6.244-4.996,12.836-5.764,19.316l-0.028,0.2l0.02,0.204c0.064,0.776,0.136,1.736,0.212,2.828
				c-6.576,0.708-13.564,1.26-20.916,1.588c2.32-9.436,4.068-19.232,5.036-26.356C162.205,52.505,169.369,53.265,175.813,54.225z
				 M145.189,78.501c-4.052,0.136-8.164,0.228-12.376,0.228c-4.212,0-8.32-0.092-12.372-0.228
				c-1.888-7.444-3.48-15.336-4.556-22.012h33.86C148.669,63.161,147.077,71.061,145.189,78.501z M114.397,20.521
				c0-8.084,8.072-14.656,18-14.656h0.832c9.924,0,18,6.576,18,14.656v5.924h-36.832V20.521z M114.397,29.281h36.832v13.68
				c0,2.344-0.38,6.132-1.048,10.692h-34.732c-0.668-4.556-1.052-8.348-1.052-10.692V29.281z M116.289,78.361
				c-7.34-0.328-14.32-0.88-20.892-1.588c0.068-0.952,0.132-1.808,0.192-2.504l0.02-0.204l-0.028-0.2
				c-0.784-6.588-2.852-13.308-5.9-19.652c6.468-0.964,13.7-1.72,21.568-2.22C112.217,59.117,113.965,68.917,116.289,78.361z
				 M91.617,74.141c-0.028,0.36-0.088,1.128-0.164,2.188c-15.36-1.86-27.948-4.64-36.128-7.764
				c-1.224-2.432-2.292-5.008-3.124-7.788c10.572-8.484,29.472-4.944,34.252-3.864C89.085,62.537,90.909,68.413,91.617,74.141z
				 M110.497,45.229c0.092,1.256,0.252,2.808,0.468,4.564c-7.832,0.524-15.392,1.32-22.344,2.384
				c-0.78-1.496-1.608-2.964-2.492-4.404C93.369,46.645,101.537,45.777,110.497,45.229z M84.809,53.669
				c-6.94-1.344-22.636-3.28-33.088,3.912c-2.124-5.188-7.804-21.824,1.4-31.656C66.061,29.285,77.717,40.453,84.809,53.669z
				 M22.897,100.477l24.744,7.584c-1.172,1.684-3.116,4.18-5.78,6.684l-7.968-5.748l-1.656,2.296l7.424,5.356
				c-1.624,1.312-3.452,2.56-5.48,3.64l-5.156-6.568l-2.228,1.752l4.76,6.064c-2.956,1.228-6.264,2.056-9.932,2.16L22.897,100.477z
				 M25.097,71.273c-4.844,6.204-6.984,14-6.38,23.22c-4.6-2.6-12.964-8.808-14.304-20.076c-0.52-4.388-0.54-8.56-0.164-12.528
				c4.42,2.016,10.436,2.716,16.572,2.716c4.36,0,8.764-0.344,12.68-0.796C30.529,65.669,27.585,68.085,25.097,71.273z
				 M42.625,59.585c-8.132,1.452-28.62,4.384-38.016-0.7c1.128-7.224,3.78-13.612,7.952-18.852c0.908-1.14,1.888-2.208,2.92-3.232
				c1.712,2.476,5.536,6.972,13.736,13.156c6.016,4.532,11.296,7.412,14.968,9.152C43.689,59.249,43.165,59.409,42.625,59.585z
				 M45.853,62.801c0.016-0.008,0.032-0.012,0.048-0.016c0,0.004,0,0.008,0,0.008c0,0.032,0.008,0.06,0.008,0.088
				C45.889,62.853,45.873,62.829,45.853,62.801z M47.869,57.649c-3.268-1.376-9.588-4.412-16.952-9.956
				c-8.472-6.384-11.972-10.78-13.308-12.812c6.408-5.424,14.74-8.824,24.528-9.884c2.612-0.284,5.204-0.148,7.768,0.244
				c-8.156,10.228-3.976,25.132-1.464,31.772C48.249,57.225,48.041,57.433,47.869,57.649z M149.669,247.925
				c1.572,0.344,3.192,0.704,4.736,1.248l0.308,0.084c9.348,1.708,11.664,3.904,11.768,4.368c-0.444,2.08-12.672,6.124-33.504,6.148
				l6.808-7.668l-1.696-1.508l-7.824,8.812l0.38,0.336c-1.928-0.028-3.796-0.08-5.564-0.172l6.632-7.472l-1.696-1.508l-7.816,8.8
				c-1.636-0.12-3.176-0.268-4.652-0.432l6.092-6.86l-1.696-1.508l-7.128,8.028c-1.572-0.216-3.056-0.452-4.408-0.708l5.16-5.812
				l-1.696-1.508l-6.02,6.784c-5.456-1.252-8.496-2.724-8.712-3.724c0.108-0.492,2.428-2.692,12.084-4.48
				c1.544-0.548,3.164-0.908,4.732-1.248c4.528-1,9.204-2.032,10.98-7.56c0.172-0.544,3.132-59.612-0.68-83.632
				c2.164,0.184,4.344,0.312,6.552,0.312c2.312,0,4.596-0.136,6.86-0.34c-3.272,24.368-1.136,83.16-0.976,83.664
				C140.465,245.893,145.145,246.925,149.669,247.925z M132.813,153.013c-43.528,0-78.044-38.708-83.156-75.448
				c9.356,10.66,47.12,15.46,84.4,15.46c0.452,0,0.908,0,1.36-0.004c3.156-0.012,6.384-0.104,9.592-0.18v-2.284
				c-3.212,0.076-6.444,0.172-9.6,0.18h-1.428c-47.664,0-83-7.488-84.24-17.904l-0.56,0.068c-0.064-0.928-0.128-1.856-0.156-2.78
				c0.784,0.408,1.652,0.8,2.536,1.188c13.064,9.036,46.776,13.72,80.172,13.72c32.676,0,66.9-4.58,81.14-13.208
				c1.336-0.548,2.6-1.112,3.732-1.696C215.509,108.865,179.297,153.013,132.813,153.013z M219.717,62.881
				c0-0.028,0.008-0.056,0.008-0.088c0-0.12-0.048-0.236-0.056-0.356c0.096,0.024,0.2,0.056,0.296,0.084
				C219.893,62.641,219.805,62.761,219.717,62.881z M216.781,57.725c2.404-5.976,7.556-22.008-1.06-32.812
				c2.564-0.396,5.156-0.528,7.768-0.244c9.788,1.056,18.12,4.456,24.524,9.88c-1.34,2.032-4.836,6.428-13.308,12.812
				C226.557,53.501,219.629,56.593,216.781,57.725z M221.437,58.777c3.672-1.74,8.952-4.616,14.968-9.152
				c8.208-6.184,12.028-10.68,13.74-13.156c1.032,1.02,2.012,2.088,2.924,3.228c4.172,5.244,6.82,11.632,7.948,18.856
				c-9.396,5.092-29.892,2.152-38.02,0.7C222.457,59.077,221.937,58.917,221.437,58.777z M234.069,121.209l4.764-6.064l-2.228-1.752
				l-5.16,6.568c-2.028-1.08-3.86-2.328-5.48-3.64l7.428-5.356l-1.656-2.296l-7.968,5.744c-2.664-2.504-4.608-5-5.78-6.684
				l24.74-7.584l1.268,23.224C240.333,123.261,237.025,122.437,234.069,121.209z M261.213,74.085
				c-1.332,11.216-9.7,17.444-14.304,20.064c0.6-9.212-1.536-17.004-6.376-23.204c-2.488-3.188-5.436-5.608-8.412-7.468
				c3.916,0.452,8.32,0.796,12.684,0.796c6.136,0,12.152-0.7,16.568-2.712C261.753,65.529,261.733,69.697,261.213,74.085z"/>
			<path d="M186.385,73.929c0.196,0.02,0.392,0.032,0.584,0.032c2.532,0,4.716-1.792,5-4.22c0.144-1.224-0.208-2.436-0.988-3.416
				c-0.844-1.056-2.116-1.744-3.5-1.892c-2.78-0.268-5.276,1.584-5.584,4.188c-0.144,1.224,0.208,2.432,0.988,3.416
				C183.725,73.089,184.997,73.781,186.385,73.929z M184.709,68.957c0.116-0.992,1.076-1.72,2.192-1.72
				c0.092,0,0.184,0.004,0.276,0.016c0.636,0.068,1.216,0.372,1.584,0.836c0.308,0.388,0.448,0.856,0.396,1.316
				c-0.128,1.076-1.208,1.848-2.468,1.704c-0.64-0.068-1.216-0.372-1.584-0.836C184.797,69.885,184.657,69.417,184.709,68.957z"/>
			<path d="M78.141,64.765c-1.384,0.148-2.66,0.836-3.5,1.892c-0.78,0.984-1.132,2.196-0.988,3.416
				c0.292,2.428,2.472,4.22,5.004,4.22c0.196,0,0.392-0.012,0.584-0.032c1.384-0.148,2.656-0.836,3.496-1.892
				c0.78-0.98,1.132-2.196,0.988-3.416C83.421,66.345,80.993,64.489,78.141,64.765z M80.517,70.605
				c-0.368,0.464-0.944,0.768-1.584,0.836c-1.316,0.152-2.344-0.632-2.468-1.704c-0.048-0.46,0.092-0.928,0.4-1.316
				c0.372-0.464,0.944-0.768,1.584-0.836c0.096-0.012,0.188-0.016,0.28-0.016c1.112,0,2.068,0.728,2.184,1.72
				C80.969,69.749,80.829,70.217,80.517,70.605z"/>
			<path d="M177.201,91.053c4.368-0.364,8.732-0.748,13.056-1.228v-2.288c-4.296,0.48-8.632,0.856-12.968,1.216
				C177.249,89.521,177.233,90.289,177.201,91.053z"/>
			<path d="M147.145,90.633v2.18c5.464-0.16,10.968-0.388,16.508-0.756c1.8-0.12,3.608-0.288,5.412-0.432
				c0.008-0.728,0.012-1.456,0.024-2.188c-1.856,0.148-3.712,0.32-5.56,0.444C158.029,90.249,152.565,90.477,147.145,90.633z"/>
		</g>
	</g>
</g>
<g>
</g>
<g>
</g>
<g>
</g>
<g>
</g>
<g>
</g>
<g>
</g>
<g>
</g>
<g>
</g>
<g>
</g>
<g>
</g>
<g>
</g>
<g>
</g>
<g>
</g>
<g>
</g>
<g>
</g>
</svg>
