<?xml version="1.0" encoding="iso-8859-1"?>
<!-- Generator: Adobe Illustrator 19.0.0, SVG Export Plug-In . SVG Version: 6.00 Build 0)  -->
<svg version="1.1" id="Layer_1" xmlns="http://www.w3.org/2000/svg" xmlns:xlink="http://www.w3.org/1999/xlink" x="0px" y="0px"
	 viewBox="0 0 512 512" style="enable-background:new 0 0 512 512;" xml:space="preserve">
<g>
	<g>
		<g>
			<path d="M512,271.361v-31.741c0-11.108-9.006-20.114-20.114-20.114h-58.75v-39.585c0-11.108-9.005-20.114-20.114-20.114H218.455
				c-3.704,0-6.705,3.002-6.705,6.704v82.16c0,2.604,1.508,4.973,3.868,6.076l18.523,8.648c7.08,3.305,11.604,10.412,11.604,18.226
				v67.993c0,11.108-9.005,20.114-20.114,20.114h-67.993c-11.108,0-20.114-9.006-20.114-20.114v-67.993
				c0-7.813,4.526-14.919,11.606-18.226l18.523-8.648c2.36-1.102,3.869-3.47,3.869-6.076v-82.16c0-3.702-3.002-6.704-6.705-6.704
				H98.977c-11.108,0-20.114,9.005-20.114,20.114v165.736c0,34.99,15.156,76.816,42.453,108.059H20.114
				C9.005,453.718,0,462.723,0,473.831s9.005,20.114,20.114,20.114h471.773c11.108,0,20.114-9.006,20.114-20.114
				s-9.005-20.114-20.114-20.114H390.683c21.099-24.15,35.37-55.232,40.42-85.062C477.071,360.131,512,319.761,512,271.361z
				 M433.136,259.734h38.637v11.627c0,25.336-16.118,46.976-38.637,55.206V259.734z"/>
			<path d="M339.852,123.438c11.108,0,20.114-9.005,20.114-20.114V38.169c0-11.108-9.005-20.114-20.114-20.114
				s-20.114,9.005-20.114,20.114v65.156C319.739,114.433,328.744,123.438,339.852,123.438z"/>
			<path d="M172.148,123.438c11.108,0,20.114-9.005,20.114-20.114V38.169c0-11.108-9.005-20.114-20.114-20.114
				c-11.108,0-20.114,9.005-20.114,20.114v65.156C152.034,114.433,161.04,123.438,172.148,123.438z"/>
			<path d="M256,123.438c11.108,0,20.114-9.005,20.114-20.114V38.169c0-11.108-9.006-20.114-20.114-20.114
				s-20.114,9.005-20.114,20.114v65.156C235.886,114.433,244.892,123.438,256,123.438z"/>
		</g>
	</g>
</g>
<g>
</g>
<g>
</g>
<g>
</g>
<g>
</g>
<g>
</g>
<g>
</g>
<g>
</g>
<g>
</g>
<g>
</g>
<g>
</g>
<g>
</g>
<g>
</g>
<g>
</g>
<g>
</g>
<g>
</g>
</svg>
