<?xml version="1.0" encoding="iso-8859-1"?>
<!-- Generator: Adobe Illustrator 19.0.0, SVG Export Plug-In . SVG Version: 6.00 Build 0)  -->
<svg version="1.1" id="Layer_1" xmlns="http://www.w3.org/2000/svg" xmlns:xlink="http://www.w3.org/1999/xlink" x="0px" y="0px"
	 viewBox="0 0 512 512" style="enable-background:new 0 0 512 512;" xml:space="preserve">
<g>
	<g>
		<path d="M480.653,378.776v-104.49h-104.49v-104.49H135.837v104.49H31.347v104.49H0v19.289l35.764,106.099h440.473L512,398.064
			v-19.289H480.653z M376.163,305.633h73.143v73.143h-73.143V305.633z M271.673,201.143h73.143v73.143h-73.143V201.143z
			 M271.673,305.633h73.143v73.143h-73.143V305.633z M167.184,201.143h73.143v73.143h-73.143V201.143z M167.184,305.633h73.143
			v73.143h-73.143V305.633z M62.694,305.633h73.143v73.143H62.694V305.633z M453.723,472.816H58.277l-21.133-62.694h437.711
			L453.723,472.816z"/>
	</g>
</g>
<g>
	<g>
		<path d="M303.02,49.635c0-6.75,1.344-9.438,3.57-13.89c2.903-5.807,6.879-13.759,6.879-27.908h-31.347
			c0,6.75-1.344,9.436-3.57,13.89c-2.903,5.807-6.879,13.759-6.879,27.908c0,14.149,3.976,22.102,6.879,27.908
			c2.226,4.452,3.57,7.14,3.57,13.89c0,6.748-1.344,9.434-3.569,13.886c-2.904,5.806-6.88,13.758-6.88,27.906h31.347
			c0-6.748,1.344-9.434,3.569-13.886c2.904-5.807,6.88-13.758,6.88-27.906c0-14.149-3.976-22.102-6.879-27.908
			C304.365,59.071,303.02,56.385,303.02,49.635z"/>
	</g>
</g>
<g>
	<g>
		<path d="M229.878,49.635c0-6.75,1.344-9.438,3.57-13.89c2.903-5.807,6.879-13.759,6.879-27.908H208.98
			c0,6.75-1.344,9.436-3.57,13.89c-2.903,5.807-6.879,13.759-6.879,27.908c0,14.149,3.976,22.102,6.879,27.908
			c2.226,4.452,3.57,7.14,3.57,13.89c0,6.748-1.344,9.434-3.569,13.886c-2.904,5.806-6.88,13.758-6.88,27.906h31.347
			c0-6.748,1.344-9.434,3.569-13.886c2.904-5.807,6.88-13.758,6.88-27.906c0-14.149-3.976-22.102-6.879-27.908
			C231.222,59.071,229.878,56.385,229.878,49.635z"/>
	</g>
</g>
<g>
</g>
<g>
</g>
<g>
</g>
<g>
</g>
<g>
</g>
<g>
</g>
<g>
</g>
<g>
</g>
<g>
</g>
<g>
</g>
<g>
</g>
<g>
</g>
<g>
</g>
<g>
</g>
<g>
</g>
</svg>
