<?xml version="1.0" encoding="iso-8859-1"?>
<!-- Generator: Adobe Illustrator 19.0.0, SVG Export Plug-In . SVG Version: 6.00 Build 0)  -->
<svg version="1.1" id="Layer_1" xmlns="http://www.w3.org/2000/svg" xmlns:xlink="http://www.w3.org/1999/xlink" x="0px" y="0px"
	 viewBox="0 0 511.999 511.999" style="enable-background:new 0 0 511.999 511.999;" xml:space="preserve">
<g>
	<g>
		<path d="M395.739,126.571l14.963-19.824c9.549-12.649,0.508-30.834-15.357-30.834h-86.907V52.439C308.439,23.524,284.915,0,256,0
			s-52.439,23.524-52.439,52.439v23.474h-86.907c-15.847,0-24.916,18.173-15.357,30.834l14.963,19.824
			c-49.362,41.25-78.305,102.456-78.305,167.385c0,120.229,97.814,218.043,218.043,218.043s218.044-97.813,218.044-218.042
			C474.043,229.027,445.1,167.822,395.739,126.571z M208.29,428.013c-4.969,9.395-16.614,12.979-26.005,8.011
			c-24.251-12.83-44.88-31.856-59.659-55.02c-5.715-8.959-3.085-20.855,5.874-26.57c8.961-5.716,20.855-3.085,26.571,5.874
			c11.201,17.56,26.834,31.979,45.209,41.7C209.674,406.977,213.26,418.62,208.29,428.013z M341.239,193.525
			c-16.855-10.467-24.534-15.235-41.891-26.014c-6.02-3.738-13.751-3.918-20.017-0.18c-7.786,4.645-7.729,8.559-23.335,52.084
			c-3.873-10.799-2.323-6.479-15.083-42.054c-3.542-9.876-13.159-12.15-11.809-11.682c-11.646-4.038-19.556,3.758-58.345,27.846
			c-10.052-77.539-7.098-68.031-15.474-79.128h67.517c10.626,0,19.241-8.615,19.241-19.241V52.439
			c0-7.695,6.261-13.956,13.956-13.956s13.956,6.261,13.956,13.956v42.716c0,10.626,8.615,19.241,19.241,19.241h67.517
			C348.575,125.178,351.005,118.137,341.239,193.525z"/>
	</g>
</g>
<g>
</g>
<g>
</g>
<g>
</g>
<g>
</g>
<g>
</g>
<g>
</g>
<g>
</g>
<g>
</g>
<g>
</g>
<g>
</g>
<g>
</g>
<g>
</g>
<g>
</g>
<g>
</g>
<g>
</g>
</svg>
